<svg xmlns="http://www.w3.org/2000/svg" viewBox="0 0 820 2420" width="820" height="2420">
  <rect width="820" height="2420" fill="#050407"/>
  <text x="410" y="44" fill="#c8a84b" font-family="serif" font-size="28" text-anchor="middle" letter-spacing="4">Black Fairy Sigil Kit V2</text>
  <text x="410" y="66" fill="#5a5068" font-family="serif" font-size="13" text-anchor="middle" font-style="italic">12 sigils · ★ new or fixed · MIRROR™ · ELARRI.AI</text>
  <g transform="translate(60,80)">
    <rect width="270" height="270" rx="14" fill="#0a080f" stroke="#2a2438"/>
    <g transform="translate(35,28)" fill="none" stroke="#c8a84b" stroke-width="3" stroke-linecap="round" stroke-linejoin="round">
<circle cx="100" cy="100" r="72"/>
<path d="M35 100 C60 60, 140 60, 165 100 C140 140, 60 140, 35 100 Z"/>
<circle cx="100" cy="100" r="18"/>
<line x1="100" y1="25" x2="100" y2="175"/>
    </g>
    <text x="135" y="308" fill="#c8a84b" font-family="serif" font-size="15" text-anchor="middle" opacity=".9">Mirror Seal</text>
    <text x="135" y="326" fill="#5a5068" font-family="monospace" font-size="10" text-anchor="middle">S-01 · R.02 · ●●○ · BL</text>
  </g>  <g transform="translate(420,80)">
    <rect width="270" height="270" rx="14" fill="#0a080f" stroke="#2a2438"/>
    <g transform="translate(35,28)" fill="none" stroke="#c8a84b" stroke-width="3" stroke-linecap="round" stroke-linejoin="round">
<path d="M100 172 C55 130, 84 92, 100 72 C116 92, 145 130, 100 172 Z"/>
<path d="M75 155 C125 128, 125 82, 75 55"/>
<path d="M125 155 C75 128, 75 82, 125 55"/>
<line x1="83" y1="77" x2="117" y2="77"/>
<line x1="78" y1="105" x2="122" y2="105"/>
<line x1="85" y1="132" x2="115" y2="132"/>
    </g>
    <text x="135" y="308" fill="#c8a84b" font-family="serif" font-size="15" text-anchor="middle" opacity=".9">DNA Flame</text>
    <text x="135" y="326" fill="#5a5068" font-family="monospace" font-size="10" text-anchor="middle">S-02 · R.09 · ●●○ · BL</text>
  </g>  <g transform="translate(60,460)">
    <rect width="270" height="270" rx="14" fill="#0a080f" stroke="#2a2438"/>
    <g transform="translate(35,28)" fill="none" stroke="#c8a84b" stroke-width="3" stroke-linecap="round" stroke-linejoin="round">
<path d="M100 25 L158 52 L140 145 L100 176 L60 145 L42 52 Z"/>
<line x1="100" y1="45" x2="100" y2="154"/>
<circle cx="100" cy="98" r="16"/>
<path d="M70 98 C85 78, 115 78, 130 98 C115 118, 85 118, 70 98 Z"/>
    </g>
    <text x="135" y="308" fill="#c8a84b" font-family="serif" font-size="15" text-anchor="middle" opacity=".9">Shadowlight Shield</text>
    <text x="135" y="326" fill="#5a5068" font-family="monospace" font-size="10" text-anchor="middle">S-03 · R.05 · ●○○</text>
  </g>  <g transform="translate(420,460)">
    <rect width="270" height="270" rx="14" fill="#0a080f" stroke="#2a2438"/>
    <g transform="translate(35,28)" fill="none" stroke="#c8a84b" stroke-width="3" stroke-linecap="round" stroke-linejoin="round">
<circle cx="100" cy="100" r="74"/>
<path d="M100 95 a5 5 0 1 0 0 10 a15 15 0 1 0 0 -30 a28 28 0 1 0 0 56 a42 42 0 1 0 0 -84 a58 58 0 1 0 0 116"/>
    </g>
    <text x="135" y="308" fill="#c8a84b" font-family="serif" font-size="15" text-anchor="middle" opacity=".9">Spiral Release ★</text>
    <text x="135" y="326" fill="#5a5068" font-family="monospace" font-size="10" text-anchor="middle">S-04 · R.08 · ●○○</text>
  </g>  <g transform="translate(60,840)">
    <rect width="270" height="270" rx="14" fill="#0a080f" stroke="#2a2438"/>
    <g transform="translate(35,28)" fill="none" stroke="#c8a84b" stroke-width="3" stroke-linecap="round" stroke-linejoin="round">
<rect x="58" y="25" width="84" height="150" rx="6"/>
<rect x="70" y="38" width="60" height="124" rx="3"/>
<line x1="52" y1="180" x2="148" y2="12" stroke-width="4.5"/>
    </g>
    <text x="135" y="308" fill="#c8a84b" font-family="serif" font-size="15" text-anchor="middle" opacity=".9">Void Mirror ★</text>
    <text x="135" y="326" fill="#5a5068" font-family="monospace" font-size="10" text-anchor="middle">S-05 · R.10 · ●●● · BL</text>
  </g>  <g transform="translate(420,840)">
    <rect width="270" height="270" rx="14" fill="#0a080f" stroke="#2a2438"/>
    <g transform="translate(35,28)" fill="none" stroke="#c8a84b" stroke-width="3" stroke-linecap="round" stroke-linejoin="round">
<ellipse cx="100" cy="128" rx="62" ry="26"/>
<path d="M100 122 m-4 0 a4 4 0 1 0 8 0 a13 13 0 1 0 -26 0 a24 24 0 1 0 48 0 a36 36 0 1 0 -72 0"/>
<line x1="100" y1="40" x2="100" y2="104"/>
    </g>
    <text x="135" y="308" fill="#c8a84b" font-family="serif" font-size="15" text-anchor="middle" opacity=".9">Memory Spiral ★</text>
    <text x="135" y="326" fill="#5a5068" font-family="monospace" font-size="10" text-anchor="middle">S-06 · Zakhor · ●○○</text>
  </g>  <g transform="translate(60,1220)">
    <rect width="270" height="270" rx="14" fill="#0a080f" stroke="#2a2438"/>
    <g transform="translate(35,28)" fill="none" stroke="#c8a84b" stroke-width="3" stroke-linecap="round" stroke-linejoin="round">
<line x1="30" y1="100" x2="170" y2="100"/>
<path d="M95 100 C55 55, 20 70, 22 112 C52 120, 76 112, 95 100 Z"/>
<path d="M105 100 C145 55, 180 70, 178 112 C148 120, 124 112, 105 100 Z"/>
<line x1="100" y1="55" x2="100" y2="145"/>
    </g>
    <text x="135" y="308" fill="#c8a84b" font-family="serif" font-size="15" text-anchor="middle" opacity=".9">Winged Threshold</text>
    <text x="135" y="326" fill="#5a5068" font-family="monospace" font-size="10" text-anchor="middle">S-07 · R.15 · ●●○</text>
  </g>  <g transform="translate(420,1220)">
    <rect width="270" height="270" rx="14" fill="#0a080f" stroke="#2a2438"/>
    <g transform="translate(35,28)" fill="none" stroke="#c8a84b" stroke-width="3" stroke-linecap="round" stroke-linejoin="round">
<circle cx="100" cy="100" r="70"/>
<path d="M100 25 L160 145 L40 145 Z"/>
<line x1="100" y1="15" x2="100" y2="185"/>
<circle cx="100" cy="100" r="10"/>
    </g>
    <text x="135" y="308" fill="#c8a84b" font-family="serif" font-size="15" text-anchor="middle" opacity=".9">Linebreaker Axis</text>
    <text x="135" y="326" fill="#5a5068" font-family="monospace" font-size="10" text-anchor="middle">S-08 · R.17 · ●●● · BL</text>
  </g>  <g transform="translate(60,1600)">
    <rect width="270" height="270" rx="14" fill="#0a080f" stroke="#2a2438"/>
    <g transform="translate(35,28)" fill="none" stroke="#c8a84b" stroke-width="3" stroke-linecap="round" stroke-linejoin="round">
<circle cx="100" cy="100" r="72"/>
<path d="M60 82 L80 46 L100 68 L120 46 L140 82"/>
<line x1="100" y1="28" x2="100" y2="175"/>
</g>
<circle cx="100" cy="100" r="7" fill="#c8a84b"/>
<g fill="none" stroke="#c8a84b" stroke-width="3" stroke-linecap="round" stroke-linejoin="round">
    </g>
    <text x="135" y="308" fill="#c8a84b" font-family="serif" font-size="15" text-anchor="middle" opacity=".9">Invocation Crown ★</text>
    <text x="135" y="326" fill="#5a5068" font-family="monospace" font-size="10" text-anchor="middle">S-09 · R.01 · ●○○</text>
  </g>  <g transform="translate(420,1600)">
    <rect width="270" height="270" rx="14" fill="#0a080f" stroke="#2a2438"/>
    <g transform="translate(35,28)" fill="none" stroke="#c8a84b" stroke-width="3" stroke-linecap="round" stroke-linejoin="round">
<path d="M32 100 C52 68, 82 68, 100 100 C118 132, 148 132, 168 100"/>
</g>
<g fill="none" stroke="#c8a84b" stroke-linecap="round" stroke-linejoin="round">
<line x1="86" y1="72" x2="114" y2="128" stroke-width="4"/>
<line x1="86" y1="128" x2="74" y2="148" stroke-width="3"/>
<line x1="86" y1="128" x2="100" y2="150" stroke-width="3"/>
<line x1="114" y1="72" x2="100" y2="50" stroke-width="3"/>
<line x1="114" y1="72" x2="128" y2="48" stroke-width="3"/>
    </g>
    <text x="135" y="308" fill="#c8a84b" font-family="serif" font-size="15" text-anchor="middle" opacity=".9">Memory Unbinding ★</text>
    <text x="135" y="326" fill="#5a5068" font-family="monospace" font-size="10" text-anchor="middle">S-10 · R.06 · ●●● · BL</text>
  </g>  <g transform="translate(60,1980)">
    <rect width="270" height="270" rx="14" fill="#0a080f" stroke="#2a2438"/>
    <g transform="translate(35,28)" fill="none" stroke="#c8a84b" stroke-width="3" stroke-linecap="round" stroke-linejoin="round">
<circle cx="100" cy="112" r="72"/>
<circle cx="100" cy="112" r="46"/>
<circle cx="100" cy="112" r="22"/>
<path d="M100 28 L114 52 L86 52 Z"/>
<line x1="100" y1="52" x2="100" y2="90"/>
    </g>
    <text x="135" y="308" fill="#c8a84b" font-family="serif" font-size="15" text-anchor="middle" opacity=".9">Mirror Audit ★</text>
    <text x="135" y="326" fill="#5a5068" font-family="monospace" font-size="10" text-anchor="middle">S-11 · R.16 · ●○○</text>
  </g>  <g transform="translate(420,1980)">
    <rect width="270" height="270" rx="14" fill="#0a080f" stroke="#2a2438"/>
    <g transform="translate(35,28)" fill="none" stroke="#c8a84b" stroke-width="3" stroke-linecap="round" stroke-linejoin="round">
<line x1="28" y1="100" x2="172" y2="100"/>
<path d="M58 100 L62 88 L50 96 L66 96 L54 88 Z"/>
<ellipse cx="100" cy="100" rx="22" ry="14"/>
<circle cx="100" cy="100" r="6"/>
<path d="M142 86 A18 18 0 1 1 142 114" stroke-linecap="round"/>
    </g>
    <text x="135" y="308" fill="#c8a84b" font-family="serif" font-size="15" text-anchor="middle" opacity=".9">Mirror Circuit ★</text>
    <text x="135" y="326" fill="#5a5068" font-family="monospace" font-size="10" text-anchor="middle">S-12 · MIRROR™ · BRAND</text>
  </g>
</svg>