<!-- BF Sigil Kit V2 — SVG Sprite -->
<!-- Usage: <svg><use href="#sig-mirror-seal" stroke="#c9c4cf"/></svg> -->
<!-- MIRROR™ · ELARRI.AI · 2026-05-23 -->
<svg xmlns="http://www.w3.org/2000/svg" style="display:none" id="bf-sigil-sprite">
  <symbol id="sig-mirror-seal" viewBox="0 0 200 200" data-num="S-01" data-ritual="R.02" data-sla="I1 + L2 + F1">
    <g fill="none" stroke-width="3" stroke-linecap="round" stroke-linejoin="round">
<circle cx="100" cy="100" r="72"/>
<path d="M35 100 C60 60, 140 60, 165 100 C140 140, 60 140, 35 100 Z"/>
<circle cx="100" cy="100" r="18"/>
<line x1="100" y1="25" x2="100" y2="175"/>
    </g>
  </symbol>
  <symbol id="sig-dna-flame" viewBox="0 0 200 200" data-num="S-02" data-ritual="R.09" data-sla="R1 + T1 + F1">
    <g fill="none" stroke-width="3" stroke-linecap="round" stroke-linejoin="round">
<path d="M100 172 C55 130, 84 92, 100 72 C116 92, 145 130, 100 172 Z"/>
<path d="M75 155 C125 128, 125 82, 75 55"/>
<path d="M125 155 C75 128, 75 82, 125 55"/>
<line x1="83" y1="77" x2="117" y2="77"/>
<line x1="78" y1="105" x2="122" y2="105"/>
<line x1="85" y1="132" x2="115" y2="132"/>
    </g>
  </symbol>
  <symbol id="sig-shadowlight-shield" viewBox="0 0 200 200" data-num="S-03" data-ritual="R.05" data-sla="I1(hex) + L2 + F1">
    <g fill="none" stroke-width="3" stroke-linecap="round" stroke-linejoin="round">
<path d="M100 25 L158 52 L140 145 L100 176 L60 145 L42 52 Z"/>
<line x1="100" y1="45" x2="100" y2="154"/>
<circle cx="100" cy="98" r="16"/>
<path d="M70 98 C85 78, 115 78, 130 98 C115 118, 85 118, 70 98 Z"/>
    </g>
  </symbol>
  <symbol id="sig-spiral-release" viewBox="0 0 200 200" data-num="S-04" data-ritual="R.08" data-sla="I1 + R1 (⟳)">
    <g fill="none" stroke-width="3" stroke-linecap="round" stroke-linejoin="round">
<circle cx="100" cy="100" r="74"/>
<path d="M100 95 a5 5 0 1 0 0 10 a15 15 0 1 0 0 -30 a28 28 0 1 0 0 56 a42 42 0 1 0 0 -84 a58 58 0 1 0 0 116"/>
    </g>
  </symbol>
  <symbol id="sig-void-mirror" viewBox="0 0 200 200" data-num="S-05" data-ritual="R.10" data-sla="□ + T1">
    <g fill="none" stroke-width="3" stroke-linecap="round" stroke-linejoin="round">
<rect x="58" y="25" width="84" height="150" rx="6"/>
<rect x="70" y="38" width="60" height="124" rx="3"/>
<line x1="52" y1="180" x2="148" y2="12" stroke-width="4.5"/>
    </g>
  </symbol>
  <symbol id="sig-memory-spiral" viewBox="0 0 200 200" data-num="S-06" data-ritual="Zakhor" data-sla="R1 + P1 + F1">
    <g fill="none" stroke-width="3" stroke-linecap="round" stroke-linejoin="round">
<ellipse cx="100" cy="128" rx="62" ry="26"/>
<path d="M100 122 m-4 0 a4 4 0 1 0 8 0 a13 13 0 1 0 -26 0 a24 24 0 1 0 48 0 a36 36 0 1 0 -72 0"/>
<line x1="100" y1="40" x2="100" y2="104"/>
    </g>
  </symbol>
  <symbol id="sig-winged-threshold" viewBox="0 0 200 200" data-num="S-07" data-ritual="R.15" data-sla="P1 + F1 + F1">
    <g fill="none" stroke-width="3" stroke-linecap="round" stroke-linejoin="round">
<line x1="30" y1="100" x2="170" y2="100"/>
<path d="M95 100 C55 55, 20 70, 22 112 C52 120, 76 112, 95 100 Z"/>
<path d="M105 100 C145 55, 180 70, 178 112 C148 120, 124 112, 105 100 Z"/>
<line x1="100" y1="55" x2="100" y2="145"/>
    </g>
  </symbol>
  <symbol id="sig-linebreaker-axis" viewBox="0 0 200 200" data-num="S-08" data-ritual="R.17" data-sla="I1 + T1 + F1 + S3">
    <g fill="none" stroke-width="3" stroke-linecap="round" stroke-linejoin="round">
<circle cx="100" cy="100" r="70"/>
<path d="M100 25 L160 145 L40 145 Z"/>
<line x1="100" y1="15" x2="100" y2="185"/>
<circle cx="100" cy="100" r="10"/>
    </g>
  </symbol>
  <symbol id="sig-invocation-crown" viewBox="0 0 200 200" data-num="S-09" data-ritual="R.01" data-sla="I1 + S3 + F1">
    <g fill="none" stroke-width="3" stroke-linecap="round" stroke-linejoin="round">
<circle cx="100" cy="100" r="72"/>
<path d="M60 82 L80 46 L100 68 L120 46 L140 82"/>
<line x1="100" y1="28" x2="100" y2="175"/>
    </g>
  </symbol>
  <symbol id="sig-memory-unbinding" viewBox="0 0 200 200" data-num="S-10" data-ritual="R.06" data-sla="L2 + T1">
    <g fill="none" stroke-width="3" stroke-linecap="round" stroke-linejoin="round">
<path d="M32 100 C52 68, 82 68, 100 100 C118 132, 148 132, 168 100"/>
<line x1="86" y1="72" x2="114" y2="128" stroke-width="4"/>
<line x1="86" y1="128" x2="74" y2="148"/>
<line x1="86" y1="128" x2="100" y2="150"/>
<line x1="114" y1="72" x2="100" y2="50"/>
<line x1="114" y1="72" x2="128" y2="48"/>
    </g>
  </symbol>
  <symbol id="sig-mirror-audit" viewBox="0 0 200 200" data-num="S-11" data-ritual="R.16" data-sla="I1×3 + T1 + F1">
    <g fill="none" stroke-width="3" stroke-linecap="round" stroke-linejoin="round">
<circle cx="100" cy="112" r="72"/>
<circle cx="100" cy="112" r="46"/>
<circle cx="100" cy="112" r="22"/>
<path d="M100 28 L114 52 L86 52 Z"/>
<line x1="100" y1="52" x2="100" y2="90"/>
    </g>
  </symbol>
  <symbol id="sig-mirror-circuit" viewBox="0 0 200 200" data-num="S-12" data-ritual="MIRROR™" data-sla="S3 + L2 + I1">
    <g fill="none" stroke-width="3" stroke-linecap="round" stroke-linejoin="round">
<line x1="28" y1="100" x2="172" y2="100"/>
<path d="M58 100 L62 88 L50 96 L66 96 L54 88 Z"/>
<ellipse cx="100" cy="100" rx="22" ry="14"/>
<circle cx="100" cy="100" r="6"/>
<path d="M142 86 A18 18 0 1 1 142 114" stroke-linecap="round"/>
    </g>
  </symbol>
</svg>